<?xml version="1.0" encoding="UTF-8"?>
<svg version="1.1" viewBox="0 0 897 890" width="897" height="890" xmlns="http://www.w3.org/2000/svg">
<path transform="translate(0)" d="m0 0h897v890h-897z" fill="#FDFDFD"/>
<path transform="translate(544,430)" d="m0 0h11l13 4 11 7 10 9 7 9 4 8v3h2l1 3v17l-1 5h-2l-1 10 16 7 14 7 11-3 2-1v-16l2-3 5-1 5 2 2 2 2 14v31l-2 3h-5l-3-3-1-14-2-5-10 4 7 40 6 42 5 26v6l8-2 1-6 5-4 9-5v-21l4-4 6 1 4 8 2 7v9l-2 3h-2v2l-8 4-6 2v6l5 2h8l8-3 1-2v-6l2-4 2-10 4-4 5 1 3 5v12l-3 9-3 2h-3l-2 4-8 4-3 1h-12l-11-3-9 2-34 14-12 4v23l-5 14-5 7-8 7-11 7-12 5-5 1h-14l-12-4-11-7-8-8-8-13-4-13-1-12 2-14 7-14 9-9 12-6 14-3h10l16 4 14 7 13 13 2 4 11-3 17-6 7-3-4-5-11-9-12-11-7-8-9-8-10-14-16-24-1 14-3 5-4 1-3-8-1-13-5-2-5-5-3-7 2-9 4-6 3-3 1-3-14-1-15-4-11-6-8-7-7-11-4-16v-10l4-16 5-10 8-10 10-7 12-4z" fill="#F9F0E1"/>
<path transform="translate(142,94)" d="m0 0 14 1 15 4 11 6 10 9 6 12 3 11v6l19-1 17-1 8-9-7-12v-6l4-3 5-1 6 5 8 13 11 21-1 6-5 1-5-4-5-10-5-3-2 4-4 5 13 16 14 19 12 17 14 19 13 16 5 5 2-4 1-3v-7l7-10-1-5-8-12v-7l3-3 6 1 8 7 5 6 1 8-3 6-6 8 1 5h6l9-5 3-4-1-5-3-13-1-7 3-4 7 1 6 9 2 6v8l-3 4-5 10-8 6-11 4h-8l-1 3-5 5-8 9-9 11-9 10-5 5 1 4 6 10 4 11v18l-4 13-7 12-11 11-12 6-10 2h-9l-16-4-10-5-10-8-8-10-5-10-3-14 1-13 5-12 6-8 9-8 12-6 11-3 6-1h13l13 4 7 4 4-1 12-13 8-9 2-3-8-3-24-6-24-8-31-16-8-5h-2l6 12v6l-4 2-6-5-6-10-10-1-6-4-4-5-1-10 2-9h-3l-18 6-5 1h-16l-10-3-10-6-7-6-7-11-4-10-2-8v-16l3-12 6-10 9-9 10-6 9-3z" fill="#F9F0E1"/>
<path transform="translate(404,552)" d="m0 0 16 1 15 4 16 8 16 12 8 9 4 10 2 10v12l-3 13-8 14-8 9-11 8-10 4-5 1h-21l-16-3-16-5-16-8-11-8-12-11-7-8-11-8-16-8-19-7-14-3-18-3-14-3-18-3-8-4-3-3 1-9 4-5 9-1 45 9 17 2h18l19-3 12-4 25-11 24-6z" fill="#F9F0E1"/>
<path transform="translate(313)" d="m0 0h72l16 12 16 13 13 11 6 5-1 4-3 4v2l8 7 9 9-6 8-12 14-9 11-13 15-12 16-4 1-12-9-6-4-7 6-16-10-21-16-14-12-12-11-21-21-7-8 5-4 4-5 1-13 5-8 16-9 3-4z" fill="#FEFEFE"/>
<path transform="translate(736,424)" d="m0 0 10 1 15 5 13 9h9l17-8 3-1h8l8 4 6 5 9 14 6 16 3 15-1 10-4 6-6 4-3 1h-24l-7 3-8 16-7 8-11 7-8 3-7 1h-9l-10-2-12-5-9-6-8-8-8-16-5-14-2-10v-15l3-12 7-13 10-10 12-6z" fill="#FDFDFD"/>
<path transform="translate(329,393)" d="m0 0h15l13 5 15 10 12 11 5 9v9l-3 6-8 7-10 6-5 5-1 2v8l1 3v18l-4 11-6 9-7 7-16 8-8 2h-20l-11-4-14-8-10-8-9-9-7-12-3-9-1-7v-12l2-9 5-10 7-8 8-5 15-5 20-1 5-4 9-17 8-7z" fill="#FDFDFD"/>
<path transform="translate(150,419)" d="m0 0h15l18 3 5 3 1 1v14l6 4 2 3v11l-1 4 9 5 2 4v8l-3 8-8 4h-11l-9-2v20l-3 27-6 29-10 36-5 17 2 1 18 2 6 3 4 5v9l-3 8-6 3h-6v9l-3 8-3 3-4 1v9l-4 4h-9l-28-5-5-5v-8l2-4-6-2-3-3-1-7 4-8 3-3-9-3-2-4v-11l3-5 2-2 9-1 22 3 9-24 7-28 4-26 3-24 1-28-10-1-20-4-5-5 1-13 4-6 6-2v-10l3-6 5-3-1-6 2-7z" fill="#F9F0E1"/>
<path transform="translate(749,119)" d="m0 0h6l3 3 2 7v5h7l5 3 3 8 1 7h8l6 4 3 9v6l-4 6-7 4-14 3 9 27 5 22 4 25 4 42v14l18-5h10l5 3 3 8v10l-6 5-4 2 3 6v13l-4 3 2 6-1 7-4 3-28 6h-9l-4-4-1-2v-7l-10-2-3-4v-11l2-4h-9l-5-5-2-4v-10l5-5 9-3 17-3v-23l-2-22-7-36-9-34-6-14-10 1-17 3-7-1-4-5-2-8 1-7 3-3 3-2-3-4-1-5v-7l4-5-3-5v-8l5-5 14-5z" fill="#F9F0E1"/>
<path transform="translate(360,716)" d="m0 0h24l27 3 16 4 10 5 6 7 1 7-4 8-12 17-11 14-8 8-12 7-14 4-8 1h-26l-23-4-15-5-10-6-6-5-2-4 1-8 7-11 16-17 7-7 12-9 12-6z" fill="#FEFEFE"/>
<path transform="translate(594,133)" d="m0 0 8 1 4 5 6 12 10 12 11 16 16 21 8 10 14 15 6 9 1 3v9l-3 6-5 5-7 3h-9l-13-4-30-11-16-5-28-8-20-5-11-4-3-5 1-6 7-6 3-1-1-9 3-5 7-3h3v-10l4-6 5-3h5v-8l3-6 6-4h7v-7l4-8z" fill="#F9F0E1"/>
<path transform="translate(834,559)" d="m0 0h22l16 2 16 5 9 6v20l-11 16-8 10-11 12-12 9-13 5-10 2-13 1h-31l-14-2-11-4-7-6-1-9 8-17 12-20 7-9 7-7 10-6 15-5z" fill="#FEFEFE"/>
<path transform="translate(58,719)" d="m0 0 10 2 10 8 9 11 12 14 9 11 17 17 7 8 12 11 11 11 1 2v7l-4 4-2 1h-10l-1 5-5 5-2 1-9-1-2-1-2 6-6 5-8 1-5-2-2 5-5 4-7 2-9-3-2 4-6 5-7 2-5-3-2-4v-19l-3-22-4-34-4-22-4-17v-9l4-8 6-5z" fill="#F9F0E1"/>
<path transform="translate(271)" d="m0 0h42l-3 7-9 6-9 5-4 7-1 13-6 7-3 2 16 17 19 19 11 9 13 11 18 13 13 8 8-6 14 11 3 2 4-1 12-16 13-15 12-14 9-11 5-7-14-14-3-2 2-5 2-2v-3l-8-7-13-11-14-11-15-11v-1h5l14 11 16 13 14 12 7 7 4 3v2h2l7 8 10 11 6 12 2 13 5 16 10 24 8 19 5 9v2l5 2 5 4 3 4v6l-1 1-7-1-13-9-23-5-42-11-12-3-12-2-12-6-14-9-19-11-17-12-14-11-14-12-12-11-15-15-7-8-9-9-7-11-2-8v-7l4-11z" fill="#F9F0E1"/>
<path transform="translate(516,782)" d="m0 0 9 1 6 4 4 5 2 4v10l-4 10-11 20-9 15-8 16-11 23h-57l-4-5-1-2v-7l-7-1-6-4-2-3v-10l-9-3-5-4-2-6 3-6 7-3 10-3 16-9 27-13 22-12 20-13z" fill="#F9F0E1"/>
<path transform="translate(536)" d="m0 0h72l1 2 1 9v19l-3 15-5 10-4 4-7 9-14 15-12 12-13 9-9 4h-8l-5-3-4-6-9-31-3-16v-9l2-10 5-12 6-10 8-10z" fill="#FEFEFE"/>
<path transform="translate(867,51)" d="m0 0h18l11 3 1 1v106l-5 2-6 1h-16l-16-4-11-6-10-10-6-12-3-16v-14l3-15 5-12 8-10 9-7 11-5z" fill="#F9F0E1"/>
<path transform="translate(404,552)" d="m0 0 16 1 15 4 16 8 16 12 8 9 4 10 2 10v12l-3 13-8 14-8 9-11 8-10 4-5 1h-21l-16-3-16-5-16-8-11-8-12-11-7-8-11-8-16-8-19-7-14-3-18-3-14-3-18-3-8-4-3-3 1-9 4-5 9-1 45 9 17 2h18l19-3 12-4 25-11 24-6zm-3 10-19 3-12 5-7 6-8 14-3 9-1 13 3 12 6 9 10 9 14 8 20 6 17 3h10l12-3 12-7 8-8 6-10 3-9v-18l-5-12-8-10-10-8-16-8-16-4z" fill="#FEFEFE"/>
<path transform="translate(718)" d="m0 0h129l-5 7-11 9-18 12-16 7-17 4-29 2-15 4-18 8-15 9-11 9-14 11-8 6-10 9-12 6h-6l-6-8 1-7 5-6 16-12 21-16 12-11 7-7 10-14 8-16z" fill="#FEFEFE"/>
<path transform="translate(472,284)" d="m0 0h20l3 13v17l-4 15-8 14-12 13-10 7-12 5-10 2h-14l-13-3-10-6-6-7-3-8v-9l4-13 7-11 7-7 14-9 11-5 13-4 15-3z" fill="#FEFEFE"/>
<path transform="translate(865,680)" d="m0 0h9l9 4 7 6 6 10 1 2v188h-4l-5-18-3-12-4-4-1-5 2-6-6-26-8-33-7-7 1-5 2-3-2-13-8-38-3-12v-13l4-8 7-6z" fill="#F9F0E1"/>
<path transform="translate(226,654)" d="m0 0h11l13 5 12 5 12 6 4 5 1 3v8l-4 6-7 3-8-1-3-2h-5l-3 4-7 15-16 31-4 11v6l7 8 4 5v8l-3 5-6 3-10-1-12-5-16-8-8-6-2-4v-9l6-7 2-1 13-1 10-20 10-24 7-11 2-5v-6l-9-9-1-7 4-6 3-3z" fill="#FEFEFE"/>
<path transform="translate(32,519)" d="m0 0h16l27 6 6 4 3 4v9l-4 6-7 3-5 2-4 12-5 33-5 18 1 8 4 3 6 3 3 3 1 4-3 9-6 5-4 1h-12l-28-4-8-4-4-5-1-2v-8l4-6 6-3h14l2-5 3-17 6-25 2-13v-11l-5-5-8-5-3-4v-10l5-5z" fill="#FEFEFE"/>
<path transform="translate(628,774)" d="m0 0 9 1 5 5 2 5-1 8-3 5 3 9 10 14 11 13 7 11 6 9 3 3h7l5-2h8l5 6 1 3v7l-4 8-11 10-2 1h-39l2-5 5-5 3-2-1-7-7-8-13-20-10-14-9-10-2-1h-8l-5 2h-9l-6-4-2-4v-6l5-8 6-6 7-4 19-13z" fill="#FEFEFE"/>
<path transform="translate(652,323)" d="m0 0h13l10 3 9 6 7 10 3 10v9l-3 10-6 10-9 9-10 5-10 2-12-1-10-4-10-9-6-12-1-4v-14l5-12 5-6 10-7 10-4z" fill="#F9F0E1"/>
<path transform="translate(111,281)" d="m0 0h13l11 4 10 9 6 8 4 10 1 5v13l-4 11-7 8-9 6-6 2h-14l-11-4-10-6-8-9-5-12v-18l4-10 8-9 10-6z" fill="#F9F0E1"/>
<path transform="translate(805,840)" d="m0 0 12 1 12 4 9 7 7 9 5 13 1 13-1 3h-111l3-7 7-11 9-11 11-9 16-8 11-3z" fill="#F9F0E1"/>
<path transform="translate(666,693)" d="m0 0 23 3h22l21-3h27l25 3 11 3 10 5 6 7 3 11v12l-2 24-3 10-6 9-6 5-5 2h-10l-6-3-1-1-4 6-3 2-5 1h-22l-14-5-17-9-14-10-6-9-16-4-16-2v-13l2-18 5-24zm75 2-27 3-16 2-5 17v3l28 4 6 3 2 3v5l-4 2h-10l-20-3h-4l-1 3v8l10 7 11 10 18 13 9 4 11 3 13 1 9-2v-5l-2-2-21-2-10-4-4-6h3l2 4 8 4 5 1 19 1-1-18v-11l3-17 3-12 3-5 5-2 4 1-7 2-4 6-4 17-1 7v18l2 15 3 5 4 3h12l6-4 6-7 4-10 2-21v-20l-4-9-7-6-10-4-16-3-25-2z" fill="#F9F0E1"/>
<path transform="translate(553,645)" d="m0 0 13 1 11 4 9 6 7 8-1 2-13 4-19 9-4 5 1 7 4 1 8-7 4-3 20-6h4v12l-3 10-6 10-9 7-10 4h-15l-11-4-9-6-8-11-3-9v-16l4-11 6-8 9-6 5-2z" fill="#FEFEFE"/>
<path transform="translate(242,282)" d="m0 0h18l10 4v3l-9 9-10 14-3 6 1 7 1 1h6l2-4 2-8 11-12 4-2v-2l5-3 5 8 2 7v17l-4 10-7 8-5 4-9 4-4 1h-16l-10-4-8-6-7-8-4-10-1-13 2-9 5-9 8-7 8-4z" fill="#FDFDFD"/>
<path transform="translate(244,821)" d="m0 0 8 1 8 4 6 7 1 2v9l-4 8-5 6-15 11-14 9-15 12h-51l5-5 12-11 8-7 12-11 7-8 17-17 11-7z" fill="#FDFDFD"/>
<path transform="translate(443,207)" d="m0 0h6l6 5 7 8 11 11 2 3-1 7-1 4 8 10 9 16 3 10h12l20 3 16 5 14 7 10 8 8 10 4 10 1 4v14l-4 13-7 12-11 12-13 10-14 8-31 14-18 8-17 10-11 9-6 8-3 6 2 4 2 9 5 23 1 8-4 4h-11l-4-5-4-16-1-5v-16l5-4 5-2 6-11 12-12 16-10 29-14 25-11 14-8 12-9 9-9 7-11 5-12v-19l-5-12-10-11-11-7-14-6-17-4-22-2 3 16v11l-3 14-5 12-8 11-13 13-12 7-13 4-16 1-12-2-12-5-8-7-5-10-1-10 3-12 5-10 8-10 10-8 15-8 19-6 16-3 10-1h14l-7-16-10-15-4-4-7 1-5-3-7-7-8-10-5-6v-7l4-6zm29 77-18 3-15 4-12 5-12 7-11 10-7 11-4 13v9l4 10 9 8 9 4 10 2h14l16-4 11-6 12-11 8-11 6-12 3-12v-17l-3-13z" fill="#F9F0E1"/>
<path transform="translate(143,109)" d="m0 0h8l12 3 10 6 7 7 6 12v4h-10l-18-2-12-1-5 2-1 1v7l7 8 13 12 8 8-4 2-14 3h-8l-11-4-9-7-6-9-3-9v-15l4-10 6-8 7-6z" fill="#FEFEFE"/>
<path transform="translate(542,446)" d="m0 0h14l10 4 8 6 7 8 4 8 2 9v9l-2 6-15-8-13-10-5-3-6-1-4 2-1 2 1 10 7 19 3 9v3l-16-4-10-5-7-8-4-9-1-4v-14l4-11 7-9 9-6z" fill="#FEFEFE"/>
<path transform="translate(404,552)" d="m0 0 16 1 15 4 16 8 16 12 8 9 4 10 2 10v12l-3 13-8 14-8 9-11 8-10 4-5 1h-21l-16-3-16-5-16-8-11-8-12-11-7-8-11-8-16-8-19-7-14-3-18-3-14-3-18-3-8-4-3-3 1-9 4-5 9-1 45 9 17 2h18l19-3 12-4 25-11 24-6zm-3 3-25 5-18 6-15 7-15 5-11 2-14 1-3 9-1 11 15 6 14 7 12 9 7 8 9 9 14 10 12 6 16 5 21 4h13l13-3 10-6 10-9 7-10 5-12 1-4v-18l-4-13-6-8-10-9-14-9-11-5-18-4z" fill="#F9F0E1"/>
<path transform="translate(545,476)" d="m0 0 7 1 12 9 17 10 18 12 10 4 16 8 6 2 11-4h2l1 4-12 5v7l6 32 5 38 8 42 10-3 1 5-12 5-29 12-19 6-32 10-5 4-5 5-3-1v-5l6-5 19-9 32-9 20-7 11-5-2-4-15-13-10-9-15-15-7-8-11-16-10-15 1-4 3-2 10 15 10 14v2l4 2 11 13 6 7 8 7 12 12 2 1-6-34-5-38-3-22-3-12-7 1-26 8-10 4h-3l-1-4 12-5 13-4 19-5-3-3-25-10-32-21-11-7-3-1 6 16 6 20 5 15-5 1-4-10-14-40v-7z" fill="#FEFEFE"/>
<path transform="translate(622,532)" d="m0 0h2l4 14 8 61 3 17v5l-6-4-17-17-9-11-5-7-5-5-15-22-1-3 1-3v-12l20-7z" fill="#FEFEFE"/>
<path transform="translate(247,134)" d="m0 0 3 2-2 4-6 8 10 13 14 18 24 34 13 16 10 13h3l6-5 3 2-2 4-10 11-8 10-18 20-27 27-3 7-2 6h-4l-1-1v-6l10-14 9-10 32-32 9-12-2-2-32-8-26-9-29-15-10-6 1-5 5 1 19 10 23 11 14 5 25 7 4 1-11-14-10-13-12-17-17-25-8-10-6-7-4 2-10 9-16 17-4 4-3-3 11-13 9-9 9-7 3-5-18 2h-20l-40-4-6-1 7 8 23 23 8 7-3 3-4-2-12-11-13-12-11-10-3-5 1-4 2-2h11l9 2 31 2h40l5-3z" fill="#FEFEFE"/>
<path transform="translate(360,716)" d="m0 0h24l27 3 16 4 10 5 6 7 1 7-4 8-12 17-11 14-8 8-12 7-14 4-8 1h-26l-23-4-15-5-10-6-6-5-2-4 1-8 7-11 16-17 7-7 12-9 12-6zm-3 3-12 4-10 6-10 8-9 9 1 5 6 15 5 21 1 7 5 2 13 2h31l14-3 14-7 12-12 2-3-2-9-7-26-3-17-20-2z" fill="#F9F0E1"/>
<path transform="translate(236,155)" d="m0 0 5 4 11 14 12 18 13 18 11 15 7 9v2l-12-3-19-6-17-7-19-10-13-7-3-5-5-10 2-4 16-17z" fill="#FEFEFE"/>
<path transform="translate(834,559)" d="m0 0h22l16 2 16 5 9 6v20l-11 16-8 10-11 12-12 9-13 5-10 2-13 1h-31l-14-2-11-4-7-6-1-9 8-17 12-20 7-9 7-7 10-6 15-5zm-4 3-21 4-14 6-10 9-7 8-3 5 1 5 10 25 6 20h33l15-2 13-5 11-8 11-11 6-8-1-5-6-11-7-16-4-15-4-1z" fill="#F9F0E1"/>
<path transform="translate(130)" d="m0 0h44l-5 5-18 12-19 12-32 22-11 9-13 11 1 10-4 3-7-1-9-6-5-8-1-3v-10l5-2 5 2 5-1 8-7 13-10 20-18 8-7 13-12z" fill="#F9F0E1"/>
<path transform="translate(549,635)" d="m0 0h16l14 4 11 6 7 6 3 4v2l3 1 1 4-9 2-7-9-11-7-12-4h-17l-10 4-10 9-5 10-2 8v12l4 13 6 8 8 7 12 5 6 1h9l11-3 9-6 7-8 5-12 1-6v-12l9-2 2 6v13l-3 10-5 9-5 5-10 9-10 5-9 3h-17l-11-4-10-7-8-8-7-12-4-15v-14l4-13 5-8 5-5 8-6 10-4z" fill="#FEFEFE"/>
<path transform="translate(245,271)" d="m0 0h17l13 5 4 4-5 5-6-2-11-3h-13l-14 4-11 8-6 10-2 6v17l4 11 7 9 8 6 10 4 4 1h13l12-4 9-6 6-7 4-9 1-5v-14l-4-12-3-5 1-4 3-3 4 2 6 10 3 8 1 6v8l-3 13-7 14-6 7-11 8-7 3-5 1h-15l-11-3-12-6-12-11-8-14-3-11v-12l3-10 6-10 8-8 12-7z" fill="#FEFEFE"/>
<path transform="translate(28,201)" d="m0 0h11l8 7 4 9 6 22 2 6v8l-4 8-7 4-7-1-6-4-3-5-2-8h-7l-15 4-8 1v-26l17-3 4-3 1-3 1-11z" fill="#FEFEFE"/>
<path transform="translate(718)" d="m0 0h3l-3 10-7 14-9 12-1 3 8 11 4 2 21-10 14-4 6-1 20-1 17-3 12-4 12-6 17-12 12-11 3 1-5 6-11 9-18 12-16 7-17 4-29 2-15 4-18 8-15 9-11 9-14 11-8 6-10 9-12 6h-6l-6-8 1-7 5-6 16-12 21-16 12-11 7-7 10-14 8-16z" fill="#F9F0E1"/>
<path transform="translate(542,433)" d="m0 0h14l12 4 11 7 12 12 6 10 3 11v8l-3 14-1 3-4-1-4-3v-21l-4-11-6-9-7-6-12-6-4-1h-12l-11 4-8 6-7 8-4 10-1 6v9l4 13 6 9 9 6 16 5 7 2 2 5v3l-14-1-13-4-11-6-7-7-5-8-4-13v-16l4-14 6-10 8-9 10-6z" fill="#FEFEFE"/>
<path transform="translate(138,97)" d="m0 0h14l17 4 13 7 8 8 6 12 2 8v6l-9-1-4-11-6-9-8-7-12-5-4-1h-16l-9 3-8 6-6 8-4 10-1 4v11l4 13 6 8 8 7 10 4h15l17-4 5 5v2l-12 5-8 2h-19l-10-3-10-7-8-9-6-13-2-7v-21l5-13 9-10 7-6 11-5z" fill="#FEFEFE"/>
<path transform="translate(889,345)" d="m0 0h8v148l-3 1-4-4-2-17-8-65-4-35-1-5v-10l4-6 7-6z" fill="#FEFEFE"/>
<path transform="translate(851,227)" d="m0 0h9l5 3 3 5 2 1h10l17-4v24l-8 3-10 4-3 5-1 11-3 5-4 3-6 1-6-3-6-9-4-15-3-14v-12l4-6z" fill="#FEFEFE"/>
<path transform="translate(651,326)" d="m0 0h10l3 15 5 12 6 8 9 10 2 4-7 9-10 7-10 3h-3l-6-18-6-11-8-10-10-8-2-1 1-4 6-7 10-6z" fill="#FEFEFE"/>
<path transform="translate(127,285)" d="m0 0 6 2 9 7 7 10 4 11-1 4-13 5-11 7-10 11-7 10-7-2-9-7-6-7-3-6 1-5 15-8 9-8h2l2-4 7-9z" fill="#FEFEFE"/>
<path transform="translate(0,345)" d="m0 0 7 6 7 8 14 23 9 10 10 6 12 3h9l10-2 9-3h5v43l1 9-5 3-28 14-16 6-14 3h-29l-1-1v-56l4 4 10 13 9 19 5 15v3l23-6 33-16 4-2v-31l1-14 1-3-8 3v12h-2l-1-2-1-9-7 1 2 10-3 1-2-7v-4h-7l2 11h-3l-2-8v-3l-8-1v12l-3-1v-13l-7-2-1 10h-3v-9l1-4-6-4-2 7h-2l1-11-4-5-4 10-3-1 3-9 2-4-4-6-4 6-1 3h-3l3-9 3-4-2-5-4 4-2 4h-3l2-5 3-5-2-5-5-6-3-2z" fill="#F9F0E1"/>
<path transform="translate(740)" d="m0 0h95l-4 5-17 12-16 8-11 3-11 1-12-2-9-5-5-4-7-10-3-6z" fill="#F9F0E2"/>
<path transform="translate(131,458)" d="m0 0h9l23 3 18 3 13 1 8 3 2 2v11l-3 5-3 2-9 1-25-5-29-5-7-3-1-1v-10l2-5z" fill="#FDFDFD"/>
<path transform="translate(774,155)" d="m0 0h11l4 5 1 3v8l-4 5-11 4-29 5-19 4h-9l-3-3-2-7v-7l5-3 28-7 23-5z" fill="#FDFDFD"/>
<path transform="translate(536)" d="m0 0 3 1-10 13-8 15-3 11v16l2 10 11 5 19 8 17 9 7-6 18-20 7-11 1-2h2l4-16v-33h2l1 2 1 9v19l-3 15-5 10-4 4-7 9-14 15-12 12-13 9-9 4h-8l-5-3-4-6-9-31-3-16v-9l2-10 5-12 6-10 8-10z" fill="#F9F0E1"/>
<path transform="translate(107,615)" d="m0 0h9l41 7 15 2 6 3 1 2v10l-2 5-3 2h-9l-50-10-11-2-3-5v-7l3-6z" fill="#FDFDFD"/>
<path transform="translate(807,312)" d="m0 0h12l4 6 1 10-4 4-15 4-38 6-9 2h-8l-3-3-2-7 1-6 6-4 29-6 22-5z" fill="#FDFDFD"/>
<path transform="translate(462,102)" d="m0 0 2 1 10 24 11 21 6 11v2l-11-3-21-6-19-5-10-4 6-8 10-13 12-14z" fill="#FEFEFE"/>
<path transform="translate(868,682)" d="m0 0 6 1 4 9 2 8v16l-6 16v11l7 15-12 9h-2l-4-16-6-30-3-12v-15l5-8 5-3z" fill="#FEFEFE"/>
<path transform="translate(761,184)" d="m0 0 4 1 9 25 6 26 5 36 3 36v7l-11 1-1-32-4-28-9-38-6-21-4-9v-2z" fill="#FEFEFE"/>
<path transform="translate(162,486)" d="m0 0 11 2v26l-4 29-6 27-9 32-5 16-11-1 3-10 9-27 6-31 5-40z" fill="#FEFEFE"/>
<path transform="translate(0,794)" d="m0 0 2 4 11 41 5 5 1 5-1 9 7 29v3h-25z" fill="#F9F0E1"/>
<path transform="translate(845,582)" d="m0 0 5 1 2 7 7-1 1 5-4 3 2 6v4l-3 1-6-5-2-2h-2l2 5v5l-4 1-4-6v-2l-4 3 2 3-1 5h-4l-4-5h-2l2 5-1 5-4-1-4-5v-2l-5 1 2 4v5l-4 1-4-6-3-1 3 6-1 5-5-1-4-6-7-1-2-4 4-3h2l-1-2v-8l4-1 4 7h2l-1-9 4-1 3 5v2l5-1-1-2v-8l4-1 2 2 2 5h2v-10l4-1 3 7h4l-2-5 1-5h5l2 4v3h4l-1-2v-8z" fill="#F9F2E6"/>
<path transform="translate(392,737)" d="m0 0 5 2 3 6 7 2 1 4-5 3-1 10-5-1-1-7-3 2v6l-1 2-4-1-2-6h-5l1 2v6l-2 3-4-1-1-7h-4v9l-5 1-1-7h-4v9l-4 1-2-1-1-7h-4v9l-5 1-2-4v-4h-7l-1-5 5-3-1-10 5 1 4 6h2v-9l4-1 3 5 1 2h4l-2-5 1-4 3-1 4 4 1 3 2 1-1-10 4-1 5 8h4l-1-9 3-1 3 3 1 5h4l-3-8z" fill="#F9F2E6"/>
<path transform="translate(574,3)" d="m0 0h4l1 6-1 3 7 2 1 4-1 1h-11v3l6 2 1 5-5 1-5-1-1 3 7 3-1 4-1 1-9-1 1 2 7 4-1 4h-8l-3-1v4l5 3v4l-3 1-7-2 1 3 6 2 1 4-6 2-7-2-2 4-5 1v-9l-5-2-2-5 5-1 6 2v-3l-4-2-2-2 1-4 9 2v-4l-5-3-1-5 5-1 5 3v-4l-5-4-1-3 1-2 5 1 4 2v-4l-5-3v-5l4-1 6 2 1-3-5-2-2-5 2-2 5 1 4 1z" fill="#F9F2E5"/>
<path transform="translate(803,449)" d="m0 0h8l5 6 8 18 1 4v8l-5 4-6 1h-16l-3-5-4-16-5-9 1-4 4-3z" fill="#FEFEFE"/>
<path transform="translate(336,410)" d="m0 0h7l16 9 10 9 1 5-6 8-11 8-5 1-8-8-8-6-9-4-1-5 10-14z" fill="#FEFEFE"/>
<path transform="translate(736,424)" d="m0 0 10 1 15 5 13 9h9l17-8 3-1h8l8 4 6 5 9 14 6 16 3 15-1 10-4 6-6 4-3 1h-24l-7 3-8 16-7 8-11 7-8 3-7 1h-9l-10-2-12-5-9-6-8-8-8-16-5-14-2-10v-15l3-12 7-13 10-10 12-6zm-3 3-10 3-10 6-7 8-7 14-2 7v20l4 14 5 12 7 12 9 8 12 6 11 3h15l10-3 10-6 9-10 5-12 4-4 4-2 28-1 6-4 3-4 1-3v-11l-5-18-8-16-9-10-7-3h-9l-20 9h-8l-5-3-8-6-13-5-6-1z" fill="#F9F0E1"/>
<path transform="translate(329,393)" d="m0 0h15l13 5 15 10 12 11 5 9v9l-3 6-8 7-10 6-5 5-1 2v8l1 3v18l-4 11-6 9-7 7-16 8-8 2h-20l-11-4-14-8-10-8-9-9-7-12-3-9-1-7v-12l2-9 5-10 7-8 8-5 15-5 20-1 5-4 9-17 8-7zm3 2-7 3-5 5-9 16-5 5-3 1h-15l-15 4-10 6-7 8-5 10-1 5v17l4 13 6 10 7 8 13 10 17 9 7 2h15l12-3 13-7 10-10 6-13 1-6v-10l-2-9 1-8 6-7 14-9 6-7 1-6-2-7-9-10-11-9-12-7-9-3-5-1z" fill="#F9F0E1"/>
<path transform="translate(893,784)" d="m0 0h4v56l-10 4h-2l-12-48-2-11z" fill="#FEFEFE"/>
<path transform="translate(454,80)" d="m0 0 3 4 5 15-10 13-12 14-9 12-5 4-17-5 6-8 12-14 22-28z" fill="#FEFEFE"/>
<path transform="translate(801,834)" d="m0 0h18l12 5 10 8 7 8 6 13 2 9v13h-6l-1-16-5-13-7-9-10-7-10-3-12-1-13 2-14 5-10 6-10 8-8 10-7 11-4 7h-7l2-5 8-15 7-9 10-10 13-8 12-5z" fill="#FEFEFE"/>
<path transform="translate(878,685)" d="m0 0 5 2 8 9 6 14v45l-13 2-6-8-2-6v-12l5-12 1-6v-10z" fill="#FEFEFE"/>
<path transform="translate(805,338)" d="m0 0h7l4 4 1 11-4 4-19 3-24 5-8-1-3-4v-7l2-5 7-3z" fill="#FEFEFE"/>
<path transform="translate(32,519)" d="m0 0h16l27 6 6 4 3 4v9l-4 6-7 3-5 2-4 12-5 33-5 18 1 8 4 3 6 3 3 3 1 4-3 9-6 5-4 1h-12l-28-4-8-4-4-5-1-2v-8l4-6 6-3h14l2-5 3-17 6-25 2-13v-11l-5-5-8-5-3-4v-10l5-5zm2 2-6 3-2 4 1 7 4 4 9 5 3 7-1 14-5 24-5 22-2 10-2 2h-16l-5 4-1 2v8l5 6 8 3 21 3h17l6-3 3-6-1-7-12-7-1-2v-12l4-13 6-37 3-9 5-4 7-2 4-4 1-7-3-5-3-3-26-6-5-1z" fill="#F9F0E1"/>
<path transform="translate(274)" d="m0 0h36l-2 6-18 10-4 7-1 13-3 5-5 3-4-1-6-8-3-7v-12l5-10z" fill="#FDFDFD"/>
<path transform="translate(112,640)" d="m0 0h8l38 7 5 3 1 1v8l-3 7-5 1-13-3-29-5-7-3-1-1v-7l4-6z" fill="#FEFEFE"/>
<path transform="translate(226,654)" d="m0 0h11l13 5 12 5 12 6 4 5 1 3v8l-4 6-7 3-8-1-3-2h-5l-3 4-7 15-16 31-4 11v6l7 8 4 5v8l-3 5-6 3-10-1-12-5-16-8-8-6-2-4v-9l6-7 2-1 13-1 10-20 10-24 7-11 2-5v-6l-9-9-1-7 4-6 3-3zm3 2-7 3-3 5 1 7 7 6 1 2v10l-8 14-5 10-9 21-5 10-6 5-11 1-5 5-1 7 3 5 5 4 16 8 11 5 4 1h8l5-4 1-6-3-6-7-6-1-2v-10l7-17 11-21 11-22 3-2 7 1 3 2h7l5-3 2-2 1-6-3-7-5-4-12-5-16-7-8-2z" fill="#F9F0E1"/>
<path transform="translate(142,438)" d="m0 0h9l35 4 6 3 3 5-1 10-2 2-16-1-29-4-8-3-2-2 1-9 2-4z" fill="#FDFDFD"/>
<path transform="translate(762,136)" d="m0 0 7 2 3 5 1 9-5 3-39 9h-10l-3-5v-9l4-3 35-10z" fill="#FDFDFD"/>
<path transform="translate(317,463)" d="m0 0h11l6 5 2 5-1 9-6 8-8 7-6 3h-6l-6-4-2-3v-11l5-10 7-7z" fill="#FEFEFE"/>
<path transform="translate(752,481)" d="m0 0h11l8 5 2 4v9l-4 6-8 4-4 1h-17l-6-5-1-2v-9l6-7 10-5z" fill="#FEFEFE"/>
<path transform="translate(628,774)" d="m0 0 9 1 5 5 2 5-1 8-3 5 3 9 10 14 11 13 7 11 6 9 3 3h7l5-2h8l5 6 1 3v7l-4 8-11 10-6 1 5-5 8-7 4-6 1-6-3-6-3-2-6 1-5 2-7-1-7-6-8-14-9-11-14-18-4-8v-7l3-5v-7l-3-5-2-1h-7l-8 4-15 11-9 6-4 6v8l4 3 5 1 10-3h7l6 4 11 13 12 18 11 16 5 6 1 7-10 10-1 2h-3l2-5 5-5 3-2-1-7-7-8-13-20-10-14-9-10-2-1h-8l-5 2h-9l-6-4-2-4v-6l5-8 6-6 7-4 19-13z" fill="#F9F0E1"/>
<path transform="translate(873,90)" d="m0 0 6 1 14 6 4 12v5l-9 13-14-2-7-2-5-15 1-5 8-10z" fill="#FEFEFE"/>
<path transform="translate(133)" d="m0 0h37l-4 4-20 13-22 14-5 3-9-11 2-4 8-7z" fill="#FEFEFE"/>
<path transform="translate(0,70)" d="m0 0 5 5 6 9 4 12 1 15-2 13-4 11-7 10-3 2z" fill="#F9F0E1"/>
<path transform="translate(852,70)" d="m0 0 9 1 13 4-1 10-4 8-9 11-14-2-7-18 12-13z" fill="#FEFEFE"/>
<path transform="translate(456,64)" d="m0 0 4 2-1 5-12 15-10 13-11 14-11 13-9 11-5 6-5-1-3-3 22-28 13-15 12-14 8-10z" fill="#FEFEFE"/>
<path transform="translate(865,126)" d="m0 0 11 1 10 2 8 9 1 5-10 11-21-2-6-20z" fill="#FEFEFE"/>
<path transform="translate(668,696)" d="m0 0 1 3-3 20-1 8 2 1 1-11 3-19 1-1 12 1 7 2-5 24-1 7h2l1-8h1v8l-1 3-13-1-13-2v-8l5-25z" fill="#FEFEFE"/>
<path transform="translate(102,28)" d="m0 0 4 2 6 9-9 7-11 8-14 12-5 2-6-7-1-3 14-11 11-9z" fill="#FEFEFE"/>
<path transform="translate(873,53)" d="m0 0 14 1 8 3-2 10-16 6-9-2-15-4v-8l9-4z" fill="#FEFEFE"/>
<path transform="translate(55,722)" d="m0 0h8l6 3 8 7-1 3-15 9-9 4-8 1-1-5v-11l4-7z" fill="#FEFEFE"/>
<path transform="translate(515,785)" d="m0 0h8l7 4 4 7v11l-4 9-4-1-13-10-8-9-2-5z" fill="#FEFEFE"/>
<path transform="translate(665,225)" d="m0 0 4 2 6 9 1 8-4 8-5 4-3 1h-12l-6-2 2-6 9-16z" fill="#FEFEFE"/>
<path transform="translate(836,125)" d="m0 0 5 1 15 7 5 15 1 5-8 4-10-6-6-5-7-11-2-7z" fill="#FEFEFE"/>
<path transform="translate(445,209)" d="m0 0 5 2 20 20 2 3v6l-5 4h-6l-7-6-7-9-7-8v-7z" fill="#FDFCFA"/>
<path transform="translate(746,122)" d="m0 0h9l3 10-2 3-29 7-8 1-3-5v-5l5-4 11-4z" fill="#FDFDFC"/>
<path transform="translate(244,821)" d="m0 0 8 1 8 4 6 7 1 2v9l-4 8-5 6-15 11-14 9-15 12h-5l4-4 17-13 21-14 8-7 4-8v-9l-6-7-7-3h-7l-10 4-8 6-10 9-11 12-17 17-8 7-12 10-4-1 15-13 12-11 10-9 7-8 17-17 11-7z" fill="#F9F0E1"/>
<path transform="translate(149,422)" d="m0 0h18l17 3 2 1v12l-1 1h-8l-18-3-13-2-1-1v-7z" fill="#FDFDFC"/>
<path transform="translate(340,583)" d="m0 0h7l-4 20-1 8-16-7-12-8-1-4 8-4z" fill="#FEFEFE"/>
<path transform="translate(729,6)" d="m0 0h2l13 18 4 4-15 7-14 4-4-1 2-10 8-16z" fill="#FEFEFE"/>
<path transform="translate(14,858)" d="m0 0 2 3 6 24v5h-22v-24l13-7z" fill="#FDFDFD"/>
<path transform="translate(436,456)" d="m0 0h5l2 2 6 29 1 9-4 2h-6l-3-3-3-9-3-16v-9z" fill="#FDFBF9"/>
<path transform="translate(116,663)" d="m0 0h10l23 4 5 3 1 6-2 4-5 1-29-5-5-3-1-1 1-7z" fill="#FDFDFC"/>
<path transform="translate(803,360)" d="m0 0h7l4 4v6l-4 3-32 6-5-3v-8l6-3z" fill="#FDFDFC"/>
<path transform="translate(559,179)" d="m0 0 5 2 17 9 12 8 10 7 16 11-2 4-6-2-22-12-22-13-8-5-1-7z" fill="#FEFEFE"/>
<path transform="translate(574,158)" d="m0 0 7 6 13 12 6 5 8 7 18 18-1 3-5-2-16-13-9-6-12-9-10-9-1-1 1-9z" fill="#FEFEFE"/>
<path transform="translate(487,837)" d="m0 0 3 2-2 5-11 13-11 14-10 11-6 8h-8l-2-2 13-16 9-11 7-7 8-7z" fill="#FEFEFE"/>
<path transform="translate(803,831)" d="m0 0h15l13 5 12 9 8 10 5 11 3 14v10h-3l-2-18-4-11-6-10-10-9-12-6-3-1h-18l-17 4-12 5-14 9-11 11-9 15-6 11-3-1 10-19 9-12 7-7 13-9 13-6z" fill="#F9F0E1"/>
<path transform="translate(84,778)" d="m0 0 4 2 13 22 10 17 8 13-2 7-3 2-6-9-9-15-10-21-7-15v-2z" fill="#FEFEFE"/>
<path transform="translate(591,139)" d="m0 0h2l7 14 5 5 8 10 11 13 11 15-1 3-4-2-8-8-7-8-13-13-7-6-7-9v-7z" fill="#FEFEFE"/>
<path transform="translate(478,828)" d="m0 0 3 3-7 7-8 7-13 12-8 8-10 8-6 1-6-3 2-4 11-8 20-15 19-14z" fill="#FEFEFE"/>
<path transform="translate(73,783)" d="m0 0 2 1 10 25 12 28 1 8-5 6h-3l-12-39-7-24v-4z" fill="#FEFEFE"/>
<path transform="translate(743,456)" d="m0 0h5l6 4 10 3 2 2-1 5-8 3-25 5h-7l-2-2v-5l5-4 15-2-2-3 1-5z" fill="#F9F0E1"/>
<path transform="translate(306,448)" d="m0 0 6 1v5l-9 10-11 12-6 6h-5l-2-2v-6l7-7 5-4 1-2-5-2-1-4 2-3 14-2z" fill="#F9F0E1"/>
<path transform="translate(885,759)" d="m0 0 4 1 6 21-1 1-7 1h-11l-9-2-3-2 1-5 9-9 9-5z" fill="#FEFEFE"/>
<path transform="translate(59,788)" d="m0 0h3l13 52 1 11-7 8-3 1-1-24-7-43z" fill="#FEFEFE"/>
<path transform="translate(831,85)" d="m0 0 6 1 5 10 2 8-6 18-10 3-1-6v-20l3-13z" fill="#FEFEFE"/>
<path transform="translate(468,818)" d="m0 0 4 1v3l-13 8-20 14-18 11h-7l-8-5 3-2 12-4 19-10 17-10z" fill="#FEFEFE"/>
<path transform="translate(28,201)" d="m0 0h11l8 7 4 9 6 22 2 6v8l-4 8-7 4-7-1-6-4-3-5-2-8h-7l-15 4-8 1v-3l25-6 6 1 3 3 3 10 3 3 9 1 5-5 1-2v-10l-5-17-5-15-4-6-5-2-8 1-2 3-1 11-3 5-10 4-12 1v-3l17-3 4-3 1-3 1-11z" fill="#F9F0E1"/>
<path transform="translate(620,357)" d="m0 0 8 2 8 8 7 14 3 9v3l-5-1-8-4-8-8-5-11-1-11z" fill="#FEFEFE"/>
<path transform="translate(889,345)" d="m0 0h8v3l-9 1-6 4-3 5v12l7 57 6 49 1 11 1 3 1-1v-18l2-2v24l-3 1-4-4-2-17-8-65-4-35-1-5v-10l4-6 7-6z" fill="#F9F0E1"/>
<path transform="translate(110,284)" d="m0 0h5l-1 9-6 8-9 8-13 7h-2l1-9 5-10 7-7 9-5z" fill="#FEFEFE"/>
<path transform="translate(193,184)" d="m0 0 7 1 6 4 4 7v8l-3 5-3-3-2-10-4-3-6 1-2 3 1 6 6 7 1 4-9-1-6-4-2-5v-9l3-6 5-4z" fill="#FEFEFE"/>
<path transform="translate(593,513)" d="m0 0 24 10 1 2-21 5-21 8-8-5 1-2 10-4 8-7z" fill="#FEFEFE"/>
<path transform="translate(561,537)" d="m0 0h10l7 6 2 4v11l-6 7h-3v-7l2-4-1-5-3-3h-5l-3 3v7l1 2v7l-5-1-5-6-1-2 1-9 4-6z" fill="#FEFEFE"/>
<path transform="translate(420,724)" d="m0 0 12 4 7 5 2 4v6l-9 14-4 4-3-8-5-23z" fill="#FEFEFE"/>
<path transform="translate(767,608)" d="m0 0h2l7 18 5 15v2l-9-1-12-6-2-3v-8l8-16z" fill="#FEFEFE"/>
<path transform="translate(524,80)" d="m0 0 13 5 20 10v3l-10 6-3 1h-10l-5-6-5-15z" fill="#FEFEFE"/>
<path transform="translate(220,151)" d="m0 0h8l-5 5-14 13-9 11-2 2h-9v-3l6-7 4-9 2-10z" fill="#FEFEFE"/>
<path transform="translate(851,227)" d="m0 0h9l5 3 3 5 2 1h10l17-4v3l-13 4-13 1-5-3-5-6-8-1-5 3-2 5 1 10 6 26 5 8 3 2 7-1 3-3 2-14 3-5 8-4 10-3h3l-1 3-15 5-4 4-1 2-1 11-3 5-4 3-6 1-6-3-6-9-4-15-3-14v-12l4-6z" fill="#F9F0E1"/>
<path transform="translate(846,105)" d="m0 0h10l4 2 4 13v5l-7 5-6-1-11-6 3-11z" fill="#FDFDFD"/>
<path transform="translate(460,73)" d="m0 0h2l6 15 6 20 11 26 7 18 4 7v2h-2l-18-34-10-23-9-24 1-5z" fill="#FEFEFE"/>
<path transform="translate(579,154)" d="m0 0h7l12 13 26 26 7 8-2 3-4-2-10-10-8-7-15-14-8-7-7-7v-2z" fill="#FEFEFE"/>
<path transform="translate(306,757)" d="m0 0h2l7 19 2 9v6l-10-4-9-7-2-3v-6l6-10z" fill="#FEFEFE"/>
<path transform="translate(551,191)" d="m0 0h9l24 14 16 9 11 6 4 2-1 3-16-6-15-7-25-12-9-5v-3z" fill="#FEFEFE"/>
<path transform="translate(875,565)" d="m0 0 9 2 11 6 2 2v11l-5 9-2 3h-2l-8-16-4-11z" fill="#FEFEFE"/>
<path transform="translate(89,775)" d="m0 0 4 2 14 20 10 13 15 23v1h-7l-4-2-8-13-12-21-13-21z" fill="#FEFEFE"/>
<path transform="translate(67,785)" d="m0 0 2 2 14 47 5 16v3l-7-1-3-5-5-23-7-27-1-11z" fill="#FEFEFE"/>
<path transform="translate(543,208)" d="m0 0 8 1 29 9 23 10 7 3-1 3-6-1-20-8-20-5-26-5 1-4z" fill="#FEFEFE"/>
<path transform="translate(473,823)" d="m0 0 4 2-5 5-12 9-19 14-17 13-4 1-1-6 4-5 18-11 11-8 15-10z" fill="#FEFEFE"/>
<path transform="translate(98,770)" d="m0 0 4 1 10 13 9 10 9 9 10 8 11 10-1 2-6 1-5-2-7-8-15-15-13-18-7-9z" fill="#FEFEFE"/>
<path transform="translate(565,172)" d="m0 0h6l17 13 15 11 13 10 6 5-1 3-5-2-14-10-18-12-23-13 2-4z" fill="#FEFEFE"/>
<path transform="translate(890,70)" d="m0 0 4 1 3 8v10l-4 5-6-1-12-6 1-10 3-3z" fill="#FDFCFB"/>
<path transform="translate(482,833)" d="m0 0 3 1-2 4-29 29-11 14-4 5-3-1-1-2v-7l15-14 8-7 8-8 8-7z" fill="#FEFEFE"/>
<path transform="translate(77,781)" d="m0 0h3l10 21 9 19 11 18 2 4-2 1h-6l-4-3-8-20-13-31-2-5z" fill="#FEFEFE"/>
<path transform="translate(155,148)" d="m0 0 24 2 8 1-2 10-6 9-2 1-8-7-7-8-7-7z" fill="#FEFEFE"/>
<path transform="translate(690,748)" d="m0 0 6 3 12 11 19 14 11 5 13 3 13 1v1l-6 1h-13l-14-4-16-8-12-8-8-7-3-5v-2h-2z" fill="#FEFEFE"/>
<path transform="translate(554,488)" d="m0 0 9 5 16 11v4l-5 5-8 5-4-1-8-26z" fill="#FEFEFE"/>
<path transform="translate(407,139)" d="m0 0 17 4 24 8 30 8 14 5v2l-12-2-51-13-24-7v-3z" fill="#FEFEFE"/>
<path transform="translate(804,446)" d="m0 0h7l6 5 8 17 3 11v6l-4 5-6 2-19 1-5-3-4-16-4-9-2-3v-7l5-4zm-1 3-14 5-3 3 1 5 5 10 4 16 2 2h16l8-2 3-3v-8l-5-14-6-11-3-3z" fill="#F9F0E1"/>
<path transform="translate(336,407)" d="m0 0h7l18 10 10 9 1 2v7l-7 8-12 9h-6l-8-7-9-7-8-4-2-2v-6l7-11 5-6zm0 3-5 4-9 13 1 5 12 6 13 12 5-1 13-10 4-6-1-5-7-7-15-9-4-2z" fill="#F9F0E1"/>
<path transform="translate(536,217)" d="m0 0 12 2 25 5 21 7 13 6-1 2-8-1-21-6-24-6-13-4-4-4z" fill="#FEFEFE"/>
<path transform="translate(104,766)" d="m0 0 7 6 15 15v2l4 2 9 9 6 5 7 8 2 3v3l-4-2-11-9-15-14-11-11-10-14z" fill="#FEFEFE"/>
<path transform="translate(3,444)" d="m0 0h4l7 14 4 13h-18v-26z" fill="#FEFEFE"/>
<path transform="translate(670,328)" d="m0 0 5 1 8 6 6 9 2 6v13l-2 2-8-10-10-21z" fill="#FEFEFE"/>
<path transform="translate(151,328)" d="m0 0h2l-1 7-5 8-9 8-8 3h-10l6-8 9-8 14-9z" fill="#FEFEFE"/>
<path transform="translate(646,498)" d="m0 0 7 1 1 2 1 9v34h-4l-1-2-1-15-4-13-1-12z" fill="#FEFEFE"/>
<path transform="translate(244,113)" d="m0 0 5 1 10 16 10 19v4l-5-1-6-11-11-11-6-9-1-5z" fill="#FEFEFE"/>
<path transform="translate(594,136)" d="m0 0h5l5 5 5 10 12 15 8 12 10 13-1 3-3-1-13-17-12-14-8-11v-2l-3-1-5-11z" fill="#FEFEFE"/>
<path transform="translate(8,104)" d="m0 0 5 1v10l-2 10-4 10-3 4-4-2v-25z" fill="#FEFEFE"/>
<path transform="translate(692,722)" d="m0 0 19 2 13 3 4 5-2 3h-15l-18-3-2-1z" fill="#FEFEFE"/>
<path transform="translate(492,842)" d="m0 0 2 1-2 5-11 16-11 17-7 9h-10l6-8 12-14 11-14z" fill="#FEFEFE"/>
<path transform="translate(465,813)" d="m0 0 3 1-1 3-23 12-13 8-15 7-12 3 1-5 5-3 10-3 25-13 17-8z" fill="#FEFEFE"/>
<path transform="translate(53,790)" d="m0 0h2l2 7 6 37 1 8v14l-1 5-4-2-1-2v-17l-3-20-3-29z" fill="#FEFEFE"/>
<path transform="translate(0)" d="m0 0h11l4 10 1 9-8 4-8-2z" fill="#FEFEFE"/>
<path transform="translate(54,57)" d="m0 0 6 1 6 4 7 10 2 7-2 2-7-1-6-4-5-6-2-6v-6z" fill="#FEFEFE"/>
<path transform="translate(343,580)" d="m0 0h7l-1 7-3 14-1 13h-4l-20-10-8-6-3-3 1-5 11-5 14-4zm-3 3-19 5-8 4 1 4 12 8 16 7 3-17 2-11z" fill="#F9F0E1"/>
<path transform="translate(729,2)" d="m0 0 4 2 12 17 6 5 1 4-26 10-4 1h-8l-2-2 1-7 5-12 7-13zm0 4-9 15-5 14 1 4 11-2 12-5 9-4-6-7-11-15z" fill="#F9F0E1"/>
<path transform="translate(865,563)" d="m0 0 7 1 6 18 9 17-1 5-3 2-5-8-7-14-5-15z" fill="#FEFEFE"/>
<path transform="translate(11)" d="m0 0h17l-1 9-5 8-7 6-4 2h-8l-3-1v-3l8 1 7-3-2-12z" fill="#F9F0E1"/>
<path transform="translate(895,395)" d="m0 0h2v57h-1l-6-35-1-14 2-5z" fill="#FEFEFE"/>
<path transform="translate(313,749)" d="m0 0 3 4 7 19 3 14 1 8-7-2-4-19-7-18 2-4z" fill="#FEFEFE"/>
<path transform="translate(317,463)" d="m0 0h11l6 5 2 5-1 9-6 8-8 7-6 3h-6l-6-4-2-3v-11l5-10 7-7zm3 2-8 4-7 10-2 6v6l5 6h8l9-7 7-8 1-2v-8l-3-5-5-2z" fill="#F9F0E1"/>
<path transform="translate(0,422)" d="m0 0 5 5 7 9 9 19 4 12-1 4-5-3-6-17-9-15-4-5z" fill="#FEFEFE"/>
<path transform="translate(752,481)" d="m0 0h11l8 5 2 4v9l-4 6-8 4-4 1h-17l-6-5-1-2v-9l6-7 10-5zm3 2-11 4-8 7-1 7 2 4 6 3h9l12-3 5-4 2-4-1-8-5-4-5-2z" fill="#F9F0E1"/>
<path transform="translate(772,599)" d="m0 0h2l8 19 7 21 1 5h-6l-12-34-2-4 1-5z" fill="#FEFEFE"/>
<path transform="translate(521,70)" d="m0 0 16 6 16 7 12 7-3 4-5-1-27-13-8-3z" fill="#FEFEFE"/>
<path transform="translate(661,738)" d="m0 0h8l15 2 3 1v11l-15-3-11-1z" fill="#FEFEFE"/>
<path transform="translate(411,722)" d="m0 0 6 2 8 35 1 6-4 4-3-8-6-22-2-11z" fill="#FEFEFE"/>
<path transform="translate(546,197)" d="m0 0 6 2 24 12 15 6 8 4 13 6v2l-9-3-12-5-14-6-27-8-4-4z" fill="#FEFEFE"/>
<path transform="translate(583,507)" d="m0 0 7 4-1 4-7 8-9 5-6 1-3-8 11-6z" fill="#FEFEFE"/>
<path transform="translate(93,773)" d="m0 0h3l13 18 7 9 11 12 9 9 1 2v6l-3 3-7-10-10-15-13-17-9-13z" fill="#FEFEFE"/>
<path transform="translate(190,152)" d="m0 0h8l1 2-2 10-5 9-5 5-5-2-2-4 6-9 3-10z" fill="#FEFEFE"/>
<path transform="translate(630,814)" d="m0 0 9 2 6 4v5l-4 5 12 3 3 2v5l-4 3 3 2 9 2 4 4-1 3-3 2v2l10 3v3l-8-1-6-4v-4l4-4-13-4-3-3v-3l6-2-2-3-11-3-3-2 1-5 3-2-1-3-11-5z" fill="#F9F0E1"/>
<path transform="translate(50,556)" d="m0 0 3 1 3 8v8l-2 1h-6l3 7 2 4v5l-2 2-7-1 6 12v5l-1 1h-7l3 8 1 5-5-5-2-4v-6l1-1h6l-1-5-3-5v-8h8l-5-11v-5l1-1h8l-4-12z" fill="#F9F0E1"/>
<path transform="translate(234,685)" d="m0 0h2l2 5v10l-1 2-5-1-3-1 2 9v8l-1 2-9-3 3 11v5l-2 2-8-1v14h-2l-1-3v-12l1-2h7l2 1-2-9v-7l1-2h5l4 2-3-10v-7l1-1 8 1-1-9-1-3z" fill="#F9F0E1"/>
<path transform="translate(118,283)" d="m0 0 7 1-4 10-8 11-10 9-11 7-7 2-1-4 17-9 10-9 5-9 1-8z" fill="#FEFEFE"/>
<path transform="translate(314,881)" d="m0 0h7l10 3 8 5v1h-38l5-5z" fill="#FEFEFE"/>
<path transform="translate(678,628)" d="m0 0 6 1-3 3-8 4-2 3 1 5 4 3h15l7-4h3l-2 4-8 4h-15l-9-3-3-4v-7l5-4 8-4z" fill="#FEFEFE"/>
<path transform="translate(622,348)" d="m0 0 5 2 8 7 7 8 8 16 3 9v4h-4l-6-18-7-12-7-6-9-4z" fill="#FEFEFE"/>
<path transform="translate(894,358)" d="m0 0h2l1 26-4 1-5-3-2-11v-7l6-5z" fill="#FEFEFE"/>
<path transform="translate(305,451)" d="m0 0h4l-1 4-9 10-13 14-3 1-1-1v-5l12-11 3-4-7-1v-4h7z" fill="#FEFEFE"/>
<path transform="translate(150,321)" d="m0 0 4 1-1 3-11 6-12 9-6 5-7 9-3-1 2-5 9-11 9-8z" fill="#FEFEFE"/>
<path transform="translate(332,214)" d="m0 0 3 1-6 8-1 6 4 4 8-1 10-6 4-8 3 1-2 6-5 6-10 5-8 2-7-1-4-6 1-5 6-8 1-3z" fill="#FEFEFE"/>
<path transform="translate(663,326)" d="m0 0 4 1 6 16 8 15 8 10-2 3-11-11-7-11-4-11z" fill="#FEFEFE"/>
<path transform="translate(745,458)" d="m0 0 12 6 6 2v2l-10 3-20 4h-7l-1-2 3-3 20-3-4-5z" fill="#FEFEFE"/>
<path transform="translate(500,849)" d="m0 0 3 1-2 5-9 14-8 16-2 5h-7l8-16 7-11z" fill="#FEFEFE"/>
<path transform="translate(505,852)" d="m0 0 2 1-1 6-13 26-2 5h-7l8-18z" fill="#FEFEFE"/>
<path transform="translate(408,641)" d="m0 0 11 1 5 1-3 12-3 1-13-3 2-9z" fill="#FEFEFE"/>
<path transform="translate(364,16)" d="m0 0 3 1v17l-2 35-1 22-2 4h-2l1-9z" fill="#F9F0E1"/>
<path transform="translate(254,575)" d="m0 0 12 2 3 2-4 14-10-2-1-3z" fill="#FEFEFE"/>
<path transform="translate(321,192)" d="m0 0 5 1 6 5 5 7v5l-2 2h-6l-8-11-1-2v-6z" fill="#FEFEFE"/>
<path transform="translate(680,604)" d="m0 0 5 1 4 11v10l-1 1-7-1-2-3-1-16z" fill="#FEFEFE"/>
<path transform="translate(673,62)" d="m0 0h3l7 11-1 3-6 4-5-2-8-7 5-5z" fill="#FEFEFE"/>
<path transform="translate(100,761)" d="m0 0 3 3-10 7-16 8-15 6-10 3v-4l20-7 17-9z" fill="#FEFEFE"/>
<path transform="translate(194,195)" d="m0 0 5 1 2 2 2 10 8 13 2 7h-3l-6-7-7-14v-2l-4-2-1-1v-5z" fill="#FEFEFE"/>
<path transform="translate(640,195)" d="m0 0h2l-1 5-8 8-10 14-11 20-3-1 1-5 9-16 11-14z" fill="#FEFEFE"/>
<path transform="translate(652,78)" d="m0 0 4 5 5 7-2 4-4 3-4-2-9-7 2-4z" fill="#FEFEFE"/>
<path transform="translate(471,810)" d="m0 0 5 5 13 15 14 12 8 6-1 3-5-2-13-11-13-13-10-13z" fill="#FEFEFE"/>
<path transform="translate(228,570)" d="m0 0 10 1 3 1-2 11-2 5-8-1-1-1z" fill="#FEFEFE"/>
<path transform="translate(894,843)" d="m0 0h3v18l-9-2-5-4v-5l6-5z" fill="#FEFEFE"/>
<path transform="translate(564,548)" d="m0 0h5l2 2-2 14v20l-2 2-3-8v-19l-2-5 1-5z" fill="#FEFEFE"/>
<path transform="translate(3,840)" d="m0 0 7 1 5 3 1 7-6 8-5 1-2-14z" fill="#FEFEFE"/>
<path transform="translate(787,713)" d="m0 0h3l-1 3-4 1-3 9-2 9-1 9v20l3 8 3 3-3 1-4-4-2-5-1-7v-10l2-19 4-13z" fill="#F9F0E1"/>
<path transform="translate(255,839)" d="m0 0 2 1-1 5-7 8-18 14-13 10-11 8-1-3 15-12 13-10 16-12z" fill="#F9F0E1"/>
<path transform="translate(349,194)" d="m0 0 5 2 5 8 2 10-2 2h-6l-2-2-2-11-1-2v-6z" fill="#FEFEFE"/>
<path transform="translate(895,392)" d="m0 0h2v3l-6 4-1 8 3 22 4 23-1 4-3-5-6-38v-13l4-6z" fill="#F9F0E1"/>
<path transform="translate(704,619)" d="m0 0 4 1 2 8-2 12-2 2-5-1-2-2 1-7 3-12z" fill="#FEFEFE"/>
<path transform="translate(0,804)" d="m0 0 2 4 7 26v4l-9-1z" fill="#FEFEFE"/>
<path transform="translate(693,45)" d="m0 0 5 5 5 7v2l-7 4-11-8v-3z" fill="#FEFEFE"/>
<path transform="translate(281,580)" d="m0 0 12 1-1 9-2 7-8-1-1-3z" fill="#FEFEFE"/>
<path transform="translate(755,490)" d="m0 0h6l2 2-1 6-7 3h-9l-4-2 2-4 8-4z" fill="#FEFEFE"/>
<path transform="translate(320,472)" d="m0 0 5 1 1 4-3 6-7 6-6 1 1-7 5-8z" fill="#FEFEFE"/>
<path transform="translate(896,794)" d="m0 0h1v36l-4-5-2-5v-15z" fill="#F9F0E1"/>
<path transform="translate(753,488)" d="m0 0h10l3 4-1 6-5 4-6 2h-7l-7-3-1-4 5-5zm2 2-9 4-4 3 1 3 3 1h9l7-3 1-6-2-2z" fill="#F9F0E1"/>
<path transform="translate(320,469)" d="m0 0 5 1 3 3v7l-7 9-6 3h-7l-1-7 4-8 5-6zm0 3-6 5-4 8v5l6-1 8-7 2-6-1-3z" fill="#F9F0E1"/>
<path transform="translate(848,62)" d="m0 0h2l1 6-9 10-5 5-5-1 4-8 9-10z" fill="#FEFEFE"/>
<path transform="translate(244,573)" d="m0 0 7 1 1 16-11-1-1-4 3-11z" fill="#FEFEFE"/>
<path transform="translate(660,72)" d="m0 0 12 9v2l-8 7-3-3-6-9 2-4z" fill="#FEFEFE"/>
<path transform="translate(413,628)" d="m0 0 14 3-2 10-15-3z" fill="#FEFEFE"/>
<path transform="translate(418,615)" d="m0 0 11 2 2 2-3 9-10-1-3-1 1-6z" fill="#FEFEFE"/>
<path transform="translate(395,638)" d="m0 0 10 1 1 3-4 10-10-2-1-3z" fill="#FEFEFE"/>
<path transform="translate(438,44)" d="m0 0 7 6 10 11-3 4-4-2-9-9-4-3 1-4z" fill="#FEFEFE"/>
<path transform="translate(585,883)" d="m0 0h9l6 5v2h-30l4-3z" fill="#F9F0E1"/>
<path transform="translate(810)" d="m0 0 4 1 4 7-1 4-7 4h-2l-5-9 1-3z" fill="#FEFEFE"/>
<path transform="translate(403,43)" d="m0 0h3l-1 46-1 5h-2v-38z" fill="#F9F0E1"/>
<path transform="translate(496,846)" d="m0 0h2l-2 5-16 24-8 15h-5l2-4 15-23z" fill="#FEFEFE"/>
<path transform="translate(271,579)" d="m0 0h6l1 1 1 15-11-1 1-8z" fill="#FEFEFE"/>
<path transform="translate(681,56)" d="m0 0 5 2 8 6-1 3-6 5-3-1-7-11z" fill="#FEFEFE"/>
<path transform="translate(703,468)" d="m0 0 3 1 5 27 5 12 6 9h-4l-7-11-5-16-3-19z" fill="#F9F0E1"/>
<path transform="translate(895,355)" d="m0 0h2v23h-1v-20l-8 5-1 1 1 15 2 4 7 1v3h-7l-5-5-2-17 3-5 6-4z" fill="#F9F0E1"/>
<path transform="translate(262,486)" d="m0 0 4 2 9 10 9 8 10 6 10 4v2l-7-1-12-6-10-9-14-14z" fill="#F9F0E1"/>
<path transform="translate(9,632)" d="m0 0 11 2 21 4 16 1-1 3h-11l-19-3-17-4z" fill="#F9F0E1"/>
<path transform="translate(433,619)" d="m0 0 10 1 2 1-2 10-10-1-2-1z" fill="#FEFEFE"/>
<path transform="translate(311,879)" d="m0 0h13l11 4 10 6v1h-6l-8-5-10-3h-7l-10 5-3 3-4-1 10-8z" fill="#F9F0E1"/>
<path transform="translate(419,566)" d="m0 0 9 1 2 1-2 10-3 1-9-2z" fill="#FEFEFE"/>
<path transform="translate(405,612)" d="m0 0 10 2-2 9-1 2-9-1-2-1 3-10z" fill="#FEFEFE"/>
<path transform="translate(863,155)" d="m0 0h13l7 1 3 5h-19l-8-2v-2z" fill="#FEFEFE"/>
<path transform="translate(229,663)" d="m0 0 15 4 23 11 7 4v2l-5-1-22-11-15-5-4-1z" fill="#F9F0E1"/>
<path transform="translate(822,877)" d="m0 0h3l4 7-2 4-3 2h-6l-4-7z" fill="#FEFEFE"/>
<path transform="translate(889,862)" d="m0 0 8 2v26l-2-1-6-25z" fill="#FEFEFE"/>
<path transform="translate(426,644)" d="m0 0 11 2-2 9-2 1h-10z" fill="#FEFEFE"/>
<path transform="translate(35,211)" d="m0 0h2l6 14 6 27v6h-2l-7-30-5-13-1-3z" fill="#F9F0E1"/>
<path transform="translate(773,853)" d="m0 0 5 5 2 5-7 5h-3l-4-7 1-4z" fill="#FEFEFE"/>
<path transform="translate(379,607)" d="m0 0 9 1 1 3-3 9-10-1 2-10z" fill="#FEFEFE"/>
<path transform="translate(762,861)" d="m0 0h2l4 7-1 4-7 5-4-4-1-5z" fill="#FEFEFE"/>
<path transform="translate(630,784)" d="m0 0h2l-2 4-9 8-17 13-7 4h-3l1-3 10-6 15-12z" fill="#F9F0E1"/>
<path transform="translate(392,609)" d="m0 0 10 2-3 10-1 1-10-1 3-11z" fill="#FEFEFE"/>
<path transform="translate(404,565)" d="m0 0h13l-3 11-12-2z" fill="#FEFEFE"/>
<path transform="translate(186,759)" d="m0 0 12 4 26 12 4 2v2l-6-1-17-8-17-7-3-1z" fill="#F9F0E1"/>
<path transform="translate(29,529)" d="m0 0 11 1 24 4 10 1v3l-13-1-25-4-7-2z" fill="#F9F0E1"/>
<path transform="translate(853,237)" d="m0 0 3 3 9 32 1 10h-2l-5-18-6-22-1-4z" fill="#F9F0E1"/>
<path transform="translate(444,635)" d="m0 0 10 1 1 3-2 7-11-1-1-3z" fill="#FEFEFE"/>
<path transform="translate(430,632)" d="m0 0 9 1 2 1-2 9h-7l-5-2z" fill="#FEFEFE"/>
<path transform="translate(14)" d="m0 0h12l-2 10-5 6-2-4z" fill="#FEFEFE"/>
<path transform="translate(436,607)" d="m0 0 12 2-1 8-1 1-9-1-3-1z" fill="#FEFEFE"/>
<path transform="translate(833,869)" d="m0 0 4 2 3 5-1 3-6 4-3-1-4-8z" fill="#FEFEFE"/>
<path transform="translate(815,867)" d="m0 0 4 1 3 5v2l-9 6-4-4-1-4z" fill="#FEFEFE"/>
<path transform="translate(448,622)" d="m0 0 10 2-2 10-8-1-3-1 2-9z" fill="#FEFEFE"/>
<path transform="translate(422,604)" d="m0 0 11 2-1 9-8-1-5-1z" fill="#FEFEFE"/>
<path transform="translate(803,876)" d="m0 0 4 1 3 6-9 7-4-4-1-4z" fill="#FEFEFE"/>
<path transform="translate(399,626)" d="m0 0 11 1-1 7-2 3-11-2z" fill="#FEFEFE"/>
<path transform="translate(785,847)" d="m0 0h2l4 6v2l-7 5-4-2-3-5 1-3z" fill="#FEFEFE"/>
<path transform="translate(432,569)" d="m0 0 6 2 4 2-1 8-3 1-8-2 1-7z" fill="#FEFEFE"/>
<path transform="translate(800,7)" d="m0 0 4 5 2 6-5 3-5-1-3-7z" fill="#FEFEFE"/>
<path transform="translate(383,635)" d="m0 0 8 1 1 3-3 9-9-3 2-9z" fill="#FEFEFE"/>
<path transform="translate(399,587)" d="m0 0 9 1 2 1-3 9-10-2 1-8z" fill="#FEFEFE"/>
<path transform="translate(374,122)" d="m0 0 4 1 10 8 5 3-2 4-9-5-10-6z" fill="#FEFEFE"/>
<path transform="translate(786,874)" d="m0 0 3 1 3 5-2 4-7 4-4-7v-2z" fill="#FEFEFE"/>
<path transform="translate(798,866)" d="m0 0 5 5-1 4-8 5-4-6 2-4z" fill="#FEFEFE"/>
<path transform="translate(826,859)" d="m0 0h3l4 6v2l-7 5-3-1-3-4 1-4z" fill="#FEFEFE"/>
<path transform="translate(518,820)" d="m0 0 5 1 2 4-5 9-4-2-3-2 1-5z" fill="#FEFEFE"/>
<path transform="translate(412,590)" d="m0 0 8 1 3 1-3 9-10-2z" fill="#FEFEFE"/>
<path transform="translate(451,610)" d="m0 0 10 2-1 8-5 1-6-2 1-7z" fill="#FEFEFE"/>
<path transform="translate(442,585)" d="m0 0 10 2 1 3-2 6-11-2z" fill="#FEFEFE"/>
<path transform="translate(631,240)" d="m0 0 10 4-1 6-2 2-11-4 2-5z" fill="#FEFEFE"/>
<path transform="translate(809,858)" d="m0 0 4 2 2 5-8 6h-2l-4-7z" fill="#FEFEFE"/>
<path transform="translate(81,739)" d="m0 0h2l7 9-3 3-4 2-6-7-1-3z" fill="#FEFEFE"/>
<path transform="translate(426,593)" d="m0 0 10 2-1 8-2 1-9-2-1-2z" fill="#FEFEFE"/>
<path transform="translate(636,208)" d="m0 0 7 6 1 3-5 5-8-6 2-5z" fill="#FEFEFE"/>
<path transform="translate(896,145)" d="m0 0h1v14l-9 1-2-5z" fill="#FEFEFE"/>
<path transform="translate(802,849)" d="m0 0h3l4 7-9 6-4-4-1-4z" fill="#FEFEFE"/>
<path transform="translate(490,812)" d="m0 0 4 2 2 4-8 7-5-5v-3z" fill="#FEFEFE"/>
<path transform="translate(439,596)" d="m0 0 11 2-1 9-11-2-1-2z" fill="#FEFEFE"/>
<path transform="translate(409,601)" d="m0 0 10 2-2 9-11-2z" fill="#FEFEFE"/>
<path transform="translate(396,598)" d="m0 0 10 2-1 6-2 3-10-2 1-6z" fill="#FEFEFE"/>
<path transform="translate(386,584)" d="m0 0 10 2-2 9-10-2 1-7z" fill="#FEFEFE"/>
<path transform="translate(643,200)" d="m0 0 4 2 4 5-2 5-4 2-6-7 1-4z" fill="#FEFEFE"/>
<path transform="translate(56,768)" d="m0 0 2 1 2 10-9 3-1-12z" fill="#FEFEFE"/>
<path transform="translate(66,764)" d="m0 0 2 2 3 9-6 3h-3l-2-11z" fill="#FEFEFE"/>
<path transform="translate(483,804)" d="m0 0 4 2 2 4-8 6-5-4-1-4z" fill="#FEFEFE"/>
<path transform="translate(373,582)" d="m0 0h7l3 1-1 7-1 2-11-2z" fill="#FEFEFE"/>
<path transform="translate(21,229)" d="m0 0h2l-1 4-5 6-6 2-2-3v-4l-4 1-2 5-3 2 1-6 5-5 5 1 1 6 7-6z" fill="#F9F0E1"/>
<path transform="translate(791,857)" d="m0 0 4 2 2 5-9 6-4-6 1-3z" fill="#FEFEFE"/>
<path transform="translate(387,623)" d="m0 0 10 2-3 9-9-1-1-3z" fill="#FEFEFE"/>
<path transform="translate(355,601)" d="m0 0 4 1 3 6v7l-4 1-4-2v-11z" fill="#FEFEFE"/>
<path transform="translate(752,9)" d="m0 0 9 3 3 4v2l-4 3-5-2-5-5 1-4z" fill="#FEFEFE"/>
<path transform="translate(500,793)" d="m0 0 4 4 6 8 14 11 4 4-2 1-10-7-10-9-7-10z" fill="#FEFEFE"/>
<path transform="translate(374,605)" d="m0 0 2 1-1 8-2 4-9-1 1-7 6-2z" fill="#FEFEFE"/>
<path transform="translate(382,596)" d="m0 0 10 1 1 2-3 7-10-2z" fill="#FEFEFE"/>
<path transform="translate(415,579)" d="m0 0 11 2-1 7-1 1-9-1-2-2z" fill="#FEFEFE"/>
<path transform="translate(840,880)" d="m0 0h3l4 6v3l-2 1h-10l-2-4z" fill="#FEFEFE"/>
<path transform="translate(429,582)" d="m0 0 10 2-1 8-2 1-9-3 1-6z" fill="#FEFEFE"/>
<path transform="translate(780,865)" d="m0 0 4 2 2 5-7 5h-3l-3-5 1-3z" fill="#FEFEFE"/>
<path transform="translate(618,235)" d="m0 0 10 4-2 6-5 1-6-3 1-5z" fill="#FEFEFE"/>
<path transform="translate(769,873)" d="m0 0 3 1 3 6-9 6-4-5v-3z" fill="#FEFEFE"/>
<path transform="translate(511,832)" d="m0 0 4 2 3 3-5 8-5-2-2-4z" fill="#FEFEFE"/>
<path transform="translate(91,751)" d="m0 0 3 1 4 5-1 4-6 2-6-8z" fill="#FEFEFE"/>
<path transform="translate(377,570)" d="m0 0 10 3-2 7-3 1-8-2z" fill="#FEFEFE"/>
<path transform="translate(402,576)" d="m0 0 10 2 1 2-2 6-9-1-2-1 1-7z" fill="#FEFEFE"/>
<path transform="translate(6,83)" d="m0 0 3 3 3 8 1 8-5-1-5-13 2-4z" fill="#FEFEFE"/>
<path transform="translate(765)" d="m0 0 4 1 4 6-1 4-5 4-4-4z" fill="#FEFEFE"/>
<path transform="translate(694,867)" d="m0 0h2l-1 4-10 10-12 9h-5l4-4 11-8 8-7z" fill="#F9F0E1"/>
<path transform="translate(453,600)" d="m0 0 9 1 2 1-1 7-2 1-9-2z" fill="#FEFEFE"/>
<path transform="translate(662,221)" d="m0 0 2 2-7 7-8 13-5 10-3-1 8-16 9-11z" fill="#FEFEFE"/>
<path transform="translate(496,163)" d="m0 0 7 3 7 6 1 4-6-1-9-7-1-4z" fill="#FEFEFE"/>
<path transform="translate(811,843)" d="m0 0 7 1 2 4-9 6-5-6v-2z" fill="#FEFEFE"/>
<path transform="translate(77,736)" d="m0 0h3v2l-14 9-11 5-9 2 1-3 12-4 14-8z" fill="#FEFEFE"/>
<path transform="translate(652,211)" d="m0 0 4 2 5 6-6 5-7-7 2-4z" fill="#FEFEFE"/>
<path transform="translate(821,850)" d="m0 0h2l3 5v2l-7 5-4-2-2-4z" fill="#FEFEFE"/>
<path transform="translate(497,820)" d="m0 0 4 1 1 4-6 8-6-5 1-3z" fill="#FEFEFE"/>
<path transform="translate(496,796)" d="m0 0 4 4v3l-7 5-4-2-2-4z" fill="#FEFEFE"/>
<path transform="translate(51,755)" d="m0 0h3l2 7v4l-7 2-2-7 1-5z" fill="#FEFEFE"/>
<path transform="translate(629,217)" d="m0 0 8 6 1 2-3 4-5-1-5-3 2-6z" fill="#FEFEFE"/>
<path transform="translate(455,589)" d="m0 0h6l4 5v5l-8-1-3-1z" fill="#FEFEFE"/>
<path transform="translate(73,761)" d="m0 0 4 2 4 7-7 4-2-2-3-9z" fill="#FEFEFE"/>
<path transform="translate(375,621)" d="m0 0 8 1 1 3-3 7-8-2z" fill="#FEFEFE"/>
<path transform="translate(784,4)" d="m0 0 3 3 2 3-1 4-4 3-3-1-3-5 2-4z" fill="#FEFEFE"/>
<path transform="translate(390,574)" d="m0 0 9 1-1 7-5 1-6-2z" fill="#FEFEFE"/>
<path transform="translate(789)" d="m0 0h8l2 3v3l-6 4-3-1-3-7z" fill="#FEFEFE"/>
<path transform="translate(896,119)" d="m0 0h1v19l-5-5-2-3 1-4z" fill="#FEFEFE"/>
<path transform="translate(501,804)" d="m0 0 4 2v4l-7 6-4-5 5-5z" fill="#FEFEFE"/>
<path transform="translate(504,826)" d="m0 0 4 2 1 3-5 7-4-1-2-3z" fill="#FEFEFE"/>
<path transform="translate(363,619)" d="m0 0 9 1-1 8-4 1-4-1z" fill="#FEFEFE"/>
<path transform="translate(645,219)" d="m0 0 5 2 4 4-2 4h-4l-6-4 2-5z" fill="#FEFEFE"/>
<path transform="translate(774,12)" d="m0 0 3 1 3 6-5 4-4-2-2-2 1-4z" fill="#FEFEFE"/>
<path transform="translate(623,227)" d="m0 0 7 3 3 3-3 4-9-3-1-3z" fill="#FEFEFE"/>
<path transform="translate(317,36)" d="m0 0h2l2 10 1 17h-3l-2-19z" fill="#F9F0E1"/>
<path transform="translate(896,800)" d="m0 0h1v25l-3-4-1-5v-9z" fill="#FEFEFE"/>
<path transform="translate(80,757)" d="m0 0h4l5 7v2l-6 2-5-7v-3z" fill="#FEFEFE"/>
<path transform="translate(281,1)" d="m0 0h2l-2 5-7 9-2 9h-3l1-9 8-11z" fill="#F9F0E1"/>
<path transform="translate(60,752)" d="m0 0h2l4 10-4 2-4-1-2-9z" fill="#FEFEFE"/>
<path transform="translate(365,597)" d="m0 0 5 2 1 1-1 7-7-1-1-1v-5z" fill="#FEFEFE"/>
<path transform="translate(816)" d="m0 0h15l-4 5-5 3h-2z" fill="#FEFEFE"/>
<path transform="translate(775,882)" d="m0 0 3 1 3 5v2h-13v-3z" fill="#FEFEFE"/>
<path transform="translate(0,89)" d="m0 0 3 3 3 9-2 4-4 3z" fill="#FEFEFE"/>
<path transform="translate(754)" d="m0 0h7l2 2-1 5-1 1h-6l-2-2v-5z" fill="#FEFEFE"/>
<path transform="translate(223,570)" d="m0 0h2v15l-6-3 1-9z" fill="#FEFEFE"/>
<path transform="translate(639,90)" d="m0 0 4 1 8 7-2 2-5 1-5-6z" fill="#FEFEFE"/>
<path transform="translate(895,757)" d="m0 0h2v20l-2-3-4-16z" fill="#FEFEFE"/>
<path transform="translate(727,523)" d="m0 0 9 5 14 2-1 3h-8l-11-4-4-4z" fill="#F9F0E1"/>
<path transform="translate(369,592)" d="m0 0 10 2 1 2-2 7h-4l-3-6-2-1z" fill="#FEFEFE"/>
<path transform="translate(333,511)" d="m0 0 3 1-5 5-6 3-11 1-2-1v-2l13-2 7-4z" fill="#F9F0E1"/>
<path transform="translate(890,240)" d="m0 0h5l2 3v6h-2l-1-6-5 2-7 7-2-2 7-8z" fill="#F9F0E1"/>
<path transform="translate(589,885)" d="m0 0 5 1 3 4h-21l2-2z" fill="#FEFEFE"/>
<path transform="translate(296,581)" d="m0 0h4l-3 17h-4l1-9z" fill="#FEFEFE"/>
<path transform="translate(758,881)" d="m0 0 5 5-2 4h-8l-1-4z" fill="#FEFEFE"/>
<path transform="translate(464,613)" d="m0 0 6 1-1 9-2 1-5-2z" fill="#FEFEFE"/>
<path transform="translate(445,575)" d="m0 0 9 6v4l-11-2 1-7z" fill="#FEFEFE"/>
<path transform="translate(833,854)" d="m0 0 4 1 4 5-4 4-4-2-3-6z" fill="#FEFEFE"/>
<path transform="translate(697,41)" d="m0 0 3 1 8 11 1 2-5 1-8-12z" fill="#FEFEFE"/>
<path transform="translate(364,580)" d="m0 0h5l1 4-2 5-6-1-2-2z" fill="#FEFEFE"/>
<path transform="translate(53,455)" d="m0 0h3l-1 3-13 5-9 1v-2l18-6z" fill="#F9F0E1"/>
<path transform="translate(842,863)" d="m0 0 3 4 1 6-4 2-5-7v-2z" fill="#FEFEFE"/>
<path transform="translate(795,844)" d="m0 0h6l1 3-7 5-4-2-2-4z" fill="#FEFEFE"/>
<path transform="translate(507,810)" d="m0 0 4 2-2 5-4 4-4-2 1-4z" fill="#FEFEFE"/>
<path transform="translate(461,625)" d="m0 0 6 1-1 5-3 5-5-1 2-9z" fill="#FEFEFE"/>
<path transform="translate(358,590)" d="m0 0 8 1-1 4-5 4h-4l1-7z" fill="#FEFEFE"/>
<path transform="translate(397,565)" d="m0 0h4l-1 8-9-2 1-5z" fill="#FEFEFE"/>
<path transform="translate(752,873)" d="m0 0 3 1 2 3v3l-7 4-2-3 1-4z" fill="#FEFEFE"/>
<path transform="translate(790,15)" d="m0 0 3 3 2 5-8 1-3-5z" fill="#FEFEFE"/>
<path transform="translate(66,749)" d="m0 0 4 2 3 6v2l-5 1-4-7v-3z" fill="#FEFEFE"/>
<path transform="translate(372,633)" d="m0 0 8 1-2 8-4-1-3-2z" fill="#FEFEFE"/>
<path transform="translate(640,226)" d="m0 0 9 6-2 4-6-2-4-4z" fill="#FEFEFE"/>
<path transform="translate(513,815)" d="m0 0 4 3-6 9-4-2 1-4z" fill="#FEFEFE"/>
<path transform="translate(73,745)" d="m0 0 4 4 3 4v2l-4 2-6-9z" fill="#FEFEFE"/>
<path transform="translate(519,479)" d="m0 0h17l1 3h-17z" fill="#F9F0E1"/>
<path transform="translate(635,233)" d="m0 0 8 4 1 4-3 1-8-4z" fill="#FEFEFE"/>
<path transform="translate(153,115)" d="m0 0h2l-1 8-3 11h-3l1-7 3-11z" fill="#F9F0E1"/>
<path transform="translate(771)" d="m0 0h12l-2 4-4 3h-2z" fill="#FEFEFE"/>
<path transform="translate(143,160)" d="m0 0 3 1v16h-3z" fill="#F9F0E1"/>
<path transform="translate(744)" d="m0 0h7v7l-4 2-4-6z" fill="#FEFEFE"/>
<path transform="translate(537,493)" d="m0 0h3l-2 6-5 10h-3l2-6z" fill="#F9F0E1"/>
<path transform="translate(107,24)" d="m0 0h2l8 11-1 2-4-2-6-8z" fill="#FEFEFE"/>
<path transform="translate(566,458)" d="m0 0h3l-2 4-7 7-3 4h-2l1-4 7-7z" fill="#F9F0E1"/>
<path transform="translate(227,297)" d="m0 0 8 6 6 5-1 2-4-2-10-8z" fill="#F9F0E1"/>
<path transform="translate(134,149)" d="m0 0h3l-1 3-12 6-4-1 8-5z" fill="#F9F0E1"/>
<path transform="translate(233,321)" d="m0 0h5v3l-16 2 1-3z" fill="#F9F0E1"/>
<path transform="translate(440,647)" d="m0 0 8 1 1 2-8 4h-3l1-6z" fill="#FEFEFE"/>
<path transform="translate(547,654)" d="m0 0h3l6 14v2h-3l-6-14z" fill="#F9F0E1"/>
<path transform="translate(144,624)" d="m0 0h2v3l-10 8h-3l1-3z" fill="#F9F0E1"/>
<path transform="translate(168,466)" d="m0 0 2 1v2l-8 7-3 2-3-1 9-9z" fill="#F9F0E1"/>
<path transform="translate(124,126)" d="m0 0 4 2 9 7v2l-4-1-10-8z" fill="#F9F0E1"/>
<path transform="translate(532,674)" d="m0 0 15 5 1 2-8-1-9-3z" fill="#F9F0E1"/>
<path transform="translate(536,454)" d="m0 0h2l6 14-3 1-6-14z" fill="#F9F0E1"/>
<path transform="translate(752,165)" d="m0 0 2 1-2 5-5 9h-2l3-9z" fill="#F9F0E1"/>
<path transform="translate(161,626)" d="m0 0h2l-1 4-7 7h-3l2-4z" fill="#F9F0E1"/>
<path transform="translate(197,472)" d="m0 0h2l-2 5-7 6h-3l2-4z" fill="#F9F0E1"/>
<path transform="translate(184,469)" d="m0 0h2l-1 4-8 7h-3l1-3 8-7z" fill="#F9F0E1"/>
<path transform="translate(786,321)" d="m0 0h2l-1 4-5 10h-3l2-5z" fill="#F9F0E1"/>
<path transform="translate(803,317)" d="m0 0h2l-1 5-5 9-2-1 2-6z" fill="#F9F0E1"/>
<path transform="translate(768,162)" d="m0 0h2l-1 5-5 9h-2l1-5z" fill="#F9F0E1"/>
<path transform="translate(735,169)" d="m0 0h2l-1 5-5 8-3-1z" fill="#F9F0E1"/>
<path transform="translate(781,160)" d="m0 0h2l-1 6-5 8h-2l2-6z" fill="#F9F0E1"/>
<path transform="translate(545,691)" d="m0 0 3 1-3 3-8 3h-3l1-3z" fill="#F9F0E1"/>
<path transform="translate(169,445)" d="m0 0 3 1-5 5-5 4h-2l1-4z" fill="#F9F0E1"/>
<path transform="translate(793,884)" d="m0 0 4 5v1h-11l5-5z" fill="#FEFEFE"/>
<path transform="translate(151,464)" d="m0 0h2l-2 4-7 6h-3l2-4z" fill="#F9F0E1"/>
<path transform="translate(746,145)" d="m0 0h2l-2 5-5 8-2-1 2-6z" fill="#F9F0E1"/>
<path transform="translate(563,8)" d="m0 0 6 2 8 4 6 2v1l-8-1-10-5z" fill="#FEFEFE"/>
<path transform="translate(126,621)" d="m0 0h2l-1 4-7 6h-2v-3z" fill="#F9F0E1"/>
<path transform="translate(806,343)" d="m0 0h3l-2 5-4 6h-2l1-5z" fill="#F9F0E1"/>
<path transform="translate(242,332)" d="m0 0h2l-2 5-6 6h-2l2-4z" fill="#F9F0E1"/>
<path transform="translate(278,312)" d="m0 0h2v3l-12 3v-3z" fill="#F9F0E1"/>
<path transform="translate(0,74)" d="m0 0 5 5-4 7h-1z" fill="#FEFEFE"/>
<path transform="translate(568,698)" d="m0 0 4 4 3 7-3 1-5-11z" fill="#F9F0E1"/>
<path transform="translate(576,689)" d="m0 0h7l6 2-1 2-9-1-3-1z" fill="#F9F0E1"/>
<path transform="translate(139,649)" d="m0 0h3l-2 4-5 5-3-1 6-7z" fill="#F9F0E1"/>
<path transform="translate(172,630)" d="m0 0h3l-2 5-6 5-2-2z" fill="#F9F0E1"/>
<path transform="translate(815,316)" d="m0 0h2l-1 7-3 5h-2l1-5z" fill="#F9F0E1"/>
<path transform="translate(0,842)" d="m0 0h1l2 20h-3z" fill="#FEFEFE"/>
<path transform="translate(575,476)" d="m0 0 5 1-1 2-11 1v-3z" fill="#F9F0E1"/>
<path transform="translate(184,448)" d="m0 0h3l-1 3-8 5h-2l2-4z" fill="#F9F0E1"/>
<path transform="translate(255,335)" d="m0 0 3 3 2 8h-3l-3-10z" fill="#F9F0E1"/>
<path transform="translate(768,325)" d="m0 0h2l-1 6-4 6-2-2z" fill="#F9F0E1"/>
<path transform="translate(762,141)" d="m0 0 1 3-6 9h-2l1-5z" fill="#F9F0E1"/>
<path transform="translate(555,700)" d="m0 0h2l-1 11-3 1 1-11z" fill="#F9F0E1"/>
<path transform="translate(466,603)" d="m0 0h3l1 8h-5z" fill="#FEFEFE"/>
<path transform="translate(155,652)" d="m0 0h2v3l-7 5h-3l2-4z" fill="#F9F0E1"/>
<path transform="translate(355,618)" d="m0 0h5l1 3-1 6-3-3z" fill="#FEFEFE"/>
<path transform="translate(265,328)" d="m0 0 5 2 5 4v2l-5-2-5-4z" fill="#F9F0E1"/>
<path transform="translate(171,126)" d="m0 0h2v3l-8 5h-2l2-4z" fill="#F9F0E1"/>
<path transform="translate(825,847)" d="m0 0 5 2 2 1-2 4-3-1-3-5z" fill="#FEFEFE"/>
<path transform="translate(169,154)" d="m0 0 9 4v3l-6-2-4-2z" fill="#F9F0E1"/>
<path transform="translate(562,500)" d="m0 0 4 2 3 4-1 4-6-7z" fill="#F9F0E1"/>
<path transform="translate(69,448)" d="m0 0h3l-1 3-9 3v-3z" fill="#F9F0E1"/>
<path transform="translate(765,19)" d="m0 0 3 1 3 5-7-1-2-2z" fill="#FEFEFE"/>
<path transform="translate(572,658)" d="m0 0h2l-1 5-3 5-2-1 2-6z" fill="#F9F0E1"/>
<path transform="translate(121,645)" d="m0 0h2v3l-8 6v-3l5-5z" fill="#F9F0E1"/>
<path transform="translate(772,349)" d="m0 0h2l-1 5-3 5h-2l3-9z" fill="#F9F0E1"/>
<path transform="translate(791,346)" d="m0 0h2l-3 9-3 1 1-5z" fill="#F9F0E1"/>
<path transform="translate(854,111)" d="m0 0 3 1 2 9h-3z" fill="#F9F0E1"/>
<path transform="translate(811,885)" d="m0 0 4 4v1h-10l5-4z" fill="#FEFEFE"/>
<path transform="translate(459,236)" d="m0 0h8l2 1v2h-8l-2-1z" fill="#F9F0E1"/>
</svg>
